<?xml version="1.0" standalone="no"?>
<!DOCTYPE svg PUBLIC "-//W3C//DTD SVG 20010904//EN"
 "http://www.w3.org/TR/2001/REC-SVG-20010904/DTD/svg10.dtd">
<svg version="1.0" xmlns="http://www.w3.org/2000/svg"
 width="860.000000pt" height="646.000000pt" viewBox="0 0 860.000000 646.000000"
 preserveAspectRatio="xMidYMid meet">

<g transform="translate(0.000000,646.000000) scale(0.100000,-0.100000)"
fill="#000000" stroke="none">
<path d="M1435 3858 c-49 -5 -138 -20 -197 -34 -167 -40 -244 -100 -323 -252
-31 -60 -28 -81 4 -29 54 87 203 187 280 187 204 0 340 -363 381 -1011 26
-419 77 -728 184 -1114 53 -193 145 -475 154 -474 4 0 192 66 417 147 l410
147 18 80 c25 106 75 288 142 520 108 369 103 441 -55 764 -55 113 -110 238
-121 276 -31 103 -37 300 -14 412 l18 84 -29 42 c-55 78 -165 140 -196 109 -6
-6 -13 -42 -16 -80 -6 -84 15 -162 64 -245 38 -66 37 -75 -20 -124 -60 -54
-110 -66 -243 -61 -97 4 -129 9 -180 31 -156 64 -280 206 -405 463 -29 60 -58
124 -65 142 -11 31 -13 32 -65 31 -29 -1 -93 -6 -143 -11z"/>
<path d="M2613 722 c-90 -64 -163 -120 -163 -123 0 -14 396 -106 407 -95 19
19 -47 325 -72 332 -6 2 -83 -50 -172 -114z"/>
</g>
</svg>
